<svg width="33" height="33" viewBox="0 0 33 33" fill="none" xmlns="http://www.w3.org/2000/svg">
<g clip-path="url(#clip0_73_2051)">
<path d="M16.5 33C25.6127 33 33 25.6127 33 16.5C33 7.3873 25.6127 0 16.5 0C7.3873 0 0 7.3873 0 16.5C0 25.6127 7.3873 33 16.5 33Z" fill="#F0F0F0"/>
<path d="M31.9737 22.2391C32.637 20.4516 33 18.5183 33 16.5C33 14.4817 32.637 12.5484 31.9737 10.7609H1.02629C0.363064 12.5484 0 14.4817 0 16.5C0 18.5183 0.363064 20.4516 1.02629 22.2391L16.5 23.6739L31.9737 22.2391Z" fill="#0052B4"/>
<path d="M16.4996 32.9999C23.594 32.9999 29.642 28.5222 31.9733 22.239H1.02588C3.35721 28.5222 9.40517 32.9999 16.4996 32.9999Z" fill="#D80027"/>
</g>
<defs>
<clipPath id="clip0_73_2051">
<rect width="33" height="33" fill="white"/>
</clipPath>
</defs>
</svg>
