<svg width="28" height="28" viewBox="0 0 28 28" fill="none" xmlns="http://www.w3.org/2000/svg">
<g clip-path="url(#clip0_1_3649)">
<path d="M14 28C21.732 28 28 21.732 28 14C28 6.26801 21.732 0 14 0C6.26801 0 0 6.26801 0 14C0 21.732 6.26801 28 14 28Z" fill="#F0F0F0"/>
<path d="M2.89383 5.47656C1.79412 6.90735 0.964892 8.55645 0.482056 10.348H7.76523L2.89383 5.47656Z" fill="#0052B4"/>
<path d="M27.5174 10.3482C27.0346 8.5567 26.2053 6.9076 25.1057 5.47681L20.2344 10.3482H27.5174Z" fill="#0052B4"/>
<path d="M0.482056 17.6523C0.964946 19.4438 1.79417 21.0929 2.89383 22.5236L7.76506 17.6523H0.482056Z" fill="#0052B4"/>
<path d="M22.5233 2.89425C21.0925 1.79454 19.4435 0.965312 17.652 0.482422V7.76554L22.5233 2.89425Z" fill="#0052B4"/>
<path d="M5.47644 25.1061C6.90723 26.2058 8.55633 27.035 10.3478 27.5179V20.2349L5.47644 25.1061Z" fill="#0052B4"/>
<path d="M10.3477 0.482422C8.55628 0.965312 6.90718 1.79454 5.47644 2.8942L10.3477 7.76548V0.482422Z" fill="#0052B4"/>
<path d="M17.652 27.5179C19.4434 27.035 21.0925 26.2058 22.5233 25.1062L17.652 20.2349V27.5179Z" fill="#0052B4"/>
<path d="M20.2344 17.6523L25.1057 22.5237C26.2053 21.093 27.0346 19.4438 27.5174 17.6523H20.2344Z" fill="#0052B4"/>
<path d="M27.8815 12.1739H15.8262H15.8261V0.118508C15.2283 0.0406875 14.6189 0 14 0C13.381 0 12.7717 0.0406875 12.1739 0.118508V12.1738V12.1739H0.118508C0.0406875 12.7717 0 13.3811 0 14C0 14.619 0.0406875 15.2283 0.118508 15.8261H12.1738H12.1739V27.8815C12.7717 27.9593 13.381 28 14 28C14.6189 28 15.2283 27.9594 15.8261 27.8815V15.8262V15.8261H27.8815C27.9593 15.2283 28 14.619 28 14C28 13.3811 27.9593 12.7717 27.8815 12.1739Z" fill="#D80027"/>
<path d="M17.652 17.6524L23.8993 23.8997C24.1866 23.6125 24.4607 23.3122 24.7222 23.0009L19.3737 17.6523H17.652V17.6524Z" fill="#D80027"/>
<path d="M10.348 17.6523H10.3479L4.10071 23.8996C4.38793 24.1869 4.68822 24.461 4.9995 24.7225L10.348 19.3739V17.6523Z" fill="#D80027"/>
<path d="M10.3481 10.3478V10.3477L4.10077 4.10034C3.81344 4.38756 3.53935 4.68785 3.27783 4.99913L8.62643 10.3477H10.3481V10.3478Z" fill="#D80027"/>
<path d="M17.652 10.3479L23.8993 4.10047C23.6121 3.81314 23.3118 3.53905 23.0005 3.27759L17.652 8.62619V10.3479Z" fill="#D80027"/>
</g>
<defs>
<clipPath id="clip0_1_3649">
<rect width="28" height="28" fill="white"/>
</clipPath>
</defs>
</svg>
