<svg width="32" height="32" viewBox="0 0 32 32" fill="none" xmlns="http://www.w3.org/2000/svg">
<g clip-path="url(#clip0_1_3293)">
<path d="M0.7555 11.1305C0.265375 12.666 -6.2489e-05 14.3018 1.10347e-08 15.9999C-6.2489e-05 17.698 0.265437 19.3339 0.755562 20.8694L16 21.5652L31.2444 20.8696C31.7345 19.334 32.0001 17.698 32.0001 16C32 14.3019 31.7346 12.666 31.2444 11.1304L16 10.4348L0.7555 11.1305Z" fill="#F0F0F0"/>
<path d="M31.2442 11.1307L15.9998 10.4351L0.755252 11.1307C0.610002 11.5859 0.484939 12.0501 0.380127 12.522H31.6191C31.5144 12.0501 31.3894 11.5858 31.2442 11.1307Z" fill="#D80027"/>
<path d="M0.380127 19.4785C0.484814 19.9504 0.609877 20.4145 0.755127 20.8698L0.756627 20.8698L15.9995 21.5655L31.2439 20.8698C31.3892 20.4146 31.5143 19.9504 31.619 19.4785H0.380127Z" fill="#D80027"/>
<path d="M16.0001 31.9998C23.1386 31.9998 29.1842 27.3246 31.2445 20.8694H0.755737C2.81605 27.3246 8.8618 31.9998 16.0001 31.9998Z" fill="#6DA544"/>
<path d="M16.0002 6.2663e-10C8.8618 6.25006e-05 2.81617 4.67525 0.755737 11.1304L31.2445 11.1305C29.1844 4.67519 23.1387 -6.24994e-05 16.0002 6.2663e-10Z" fill="#338AF3"/>
<path d="M7.31135 6.60913C7.31135 5.11057 8.36454 3.8587 9.77098 3.55157C9.55485 3.50432 9.33054 3.47876 9.10016 3.47876C7.37129 3.47876 5.96973 4.88026 5.96973 6.6092C5.96973 8.33813 7.37116 9.73963 9.10016 9.73963C9.33054 9.73963 9.55479 9.71401 9.77098 9.66682C8.3646 9.35957 7.31135 8.1077 7.31135 6.60913Z" fill="#F0F0F0"/>
<path d="M11.6214 8.03174L11.8333 8.68393H12.519L11.9643 9.08705L12.1761 9.73924L11.6214 9.33618L11.0665 9.73924L11.2784 9.08705L10.7236 8.68393H11.4094L11.6214 8.03174Z" fill="#F0F0F0"/>
<path d="M13.81 8.03174L14.0219 8.68393H14.7077L14.1529 9.08705L14.3648 9.73924L13.81 9.33618L13.2552 9.73924L13.4671 9.08705L12.9124 8.68393H13.598L13.81 8.03174Z" fill="#F0F0F0"/>
<path d="M15.9993 8.03174L16.2112 8.68393H16.897L16.3422 9.08705L16.5541 9.73924L15.9993 9.33618L15.4444 9.73924L15.6564 9.08705L15.1016 8.68393H15.7874L15.9993 8.03174Z" fill="#F0F0F0"/>
<path d="M18.1868 8.03174L18.3988 8.68393H19.0844L18.5297 9.08705L18.7416 9.73924L18.1868 9.33618L17.6319 9.73924L17.8439 9.08705L17.2891 8.68393H17.9748L18.1868 8.03174Z" fill="#F0F0F0"/>
<path d="M20.3761 8.03174L20.588 8.68393H21.2738L20.719 9.08705L20.931 9.73924L20.3761 9.33618L19.8213 9.73924L20.0332 9.08705L19.4785 8.68393H20.1641L20.3761 8.03174Z" fill="#F0F0F0"/>
<path d="M13.81 5.75513L14.0219 6.40725H14.7077L14.1529 6.81044L14.3648 7.46256L13.81 7.0595L13.2552 7.46256L13.4671 6.81044L12.9124 6.40725H13.598L13.81 5.75513Z" fill="#F0F0F0"/>
<path d="M15.9993 5.75513L16.2112 6.40725H16.897L16.3422 6.81044L16.5541 7.46256L15.9993 7.0595L15.4444 7.46256L15.6564 6.81044L15.1016 6.40725H15.7874L15.9993 5.75513Z" fill="#F0F0F0"/>
<path d="M18.1868 5.75488L18.3988 6.40701H19.0844L18.5297 6.81019L18.7416 7.46232L18.1868 7.05926L17.6319 7.46232L17.8439 6.81019L17.2891 6.40701H17.9748L18.1868 5.75488Z" fill="#F0F0F0"/>
<path d="M20.3761 5.75488L20.588 6.40701H21.2738L20.719 6.81019L20.931 7.46232L20.3761 7.05926L19.8213 7.46232L20.0332 6.81019L19.4785 6.40701H20.1641L20.3761 5.75488Z" fill="#F0F0F0"/>
<path d="M15.9993 3.47827L16.2112 4.13052H16.897L16.3422 4.53358L16.5541 5.18583L15.9993 4.78277L15.4444 5.18583L15.6564 4.53358L15.1016 4.13052H15.7874L15.9993 3.47827Z" fill="#F0F0F0"/>
<path d="M18.1868 3.47827L18.3988 4.13052H19.0844L18.5297 4.53358L18.7416 5.18583L18.1868 4.78277L17.6319 5.18583L17.8439 4.53358L17.2891 4.13052H17.9748L18.1868 3.47827Z" fill="#F0F0F0"/>
<path d="M20.3761 3.47827L20.588 4.13052H21.2738L20.719 4.53358L20.931 5.18583L20.3761 4.78277L19.8213 5.18583L20.0332 4.53358L19.4785 4.13052H20.1641L20.3761 3.47827Z" fill="#F0F0F0"/>
</g>
<defs>
<clipPath id="clip0_1_3293">
<rect width="32" height="32" fill="white"/>
</clipPath>
</defs>
</svg>
